<?xml version="1.0" standalone="no"?>
<!DOCTYPE svg PUBLIC "-//W3C//DTD SVG 1.1//EN" "http://www.w3.org/Graphics/SVG/1.1/DTD/svg11.dtd" >
<svg xmlns="http://www.w3.org/2000/svg">
<metadata></metadata>
<defs>
<font id="hk_groteskbold" horiz-adv-x="1188" >
<font-face units-per-em="2048" ascent="1434" descent="-614" />
<missing-glyph horiz-adv-x="553" />
<glyph unicode="&#xfb01;" horiz-adv-x="1229" d="M90 795v204h156q0 199 105 317t323 118q43 0 80.5 -4.5t68 -14t53 -17.5t46 -23t34 -22t30 -23t22.5 -19l-129 -187q-26 26 -46 41.5t-63.5 31t-97.5 15.5q-101 0 -143 -53t-42 -160h551v-999h-235v795h-316v-795h-241v795h-156z" />
<glyph unicode="&#xfb02;" horiz-adv-x="1204" d="M53 795v204h156v93q0 152 114.5 247t297.5 95q203 0 380 -158v-969q0 -39 5.5 -62.5t19 -32.5t24 -11t31.5 -2q23 0 47 6v-205q-94 -20 -163 -20q-39 0 -71 9.5t-62.5 32.5t-48 68t-17.5 109v970q-79 50 -160 50q-69 0 -112 -37t-43 -97v-86h161v-204h-161v-795h-242v795 h-156z" />
<glyph horiz-adv-x="0" />
<glyph horiz-adv-x="682" />
<glyph unicode=" "  horiz-adv-x="553" />
<glyph unicode="&#x09;" horiz-adv-x="553" />
<glyph unicode="&#xa0;" horiz-adv-x="553" />
<glyph unicode="!" horiz-adv-x="635" d="M184 0v264h267v-264h-267zM197 1434h241l-28 -1006h-185z" />
<glyph unicode="&#x22;" horiz-adv-x="958" d="M203 866v547h205v-547h-205zM551 866v547h205v-547h-205z" />
<glyph unicode="#" horiz-adv-x="1382" d="M78 414v172h270l53 262h-241v180h278l94 406h193l-96 -437h250l92 437h192l-94 -414h234v-172h-271l-53 -262h242v-180h-279l-92 -406h-191l93 436h-250l-90 -436h-191l90 414h-233zM539 586h249l54 262h-250z" />
<glyph unicode="$" horiz-adv-x="1130" d="M45 385l246 53q13 -111 93 -169t200 -58q235 0 235 192q0 43 -23.5 78t-62.5 60.5t-90 49t-107.5 46.5t-113 48t-107.5 59.5t-90 76t-62.5 102t-23.5 132.5q0 144 92.5 243t233.5 129v232h201v-227q230 -37 338 -232l-205 -121q-36 67 -96 101t-132 34q-76 0 -128 -42 t-52 -107q0 -40 23.5 -73t62.5 -57t90 -46t107.5 -44.5t113 -48.5t107.5 -61.5t90 -79t62.5 -106.5t23.5 -139q0 -175 -115.5 -290.5t-289.5 -135.5v-230h-201v234q-163 29 -278 131.5t-142 265.5z" />
<glyph unicode="%" horiz-adv-x="1540" d="M76 1102q0 42 8 84.5t28 88.5t50 81t80 57.5t112 22.5q71 0 127 -30.5t89 -80.5t50 -107.5t17 -117.5q0 -59 -16.5 -116t-49 -106.5t-87.5 -79.5t-124 -30q-63 0 -114 22.5t-82 57.5t-51.5 81t-28.5 88.5t-8 84.5zM252 1102q0 -69 28 -115.5t76 -46.5q45 0 73 47.5 t28 114.5q0 68 -28 114t-75 46t-74.5 -45.5t-27.5 -114.5zM262 -20l791 1474h211l-791 -1474h-211zM903 328q0 54 14 109t43.5 109t87 88t134.5 34q71 0 127 -31t88.5 -81.5t49.5 -108.5t17 -119q0 -60 -16.5 -118t-49 -108t-87 -81t-123.5 -31q-63 0 -114 23t-82 58.5 t-52 82t-29 89.5t-8 85zM1079 328q0 -71 28.5 -118.5t78.5 -47.5q43 0 70.5 49.5t27.5 118.5q0 70 -28 117t-74 47q-47 0 -75 -47.5t-28 -118.5z" />
<glyph unicode="&#x26;" horiz-adv-x="1399" d="M78 330q0 207 229 372q55 40 96 64q-165 170 -165 332q0 99 58 176.5t146.5 116.5t186.5 39q155 0 265 -95.5t110 -234.5q0 -53 -19.5 -104t-44.5 -87.5t-65.5 -75t-66.5 -58.5t-63 -46l199 -219q13 32 22.5 78.5t13.5 77.5l3 30l238 -24q0 -7 -9.5 -57t-35 -138.5 t-58.5 -154.5l236 -254l-180 -144l-195 217q-183 -164 -438 -164q-131 0 -234.5 40t-166 121t-62.5 192zM313 326q0 -69 60 -105.5t162 -36.5q175 0 288 111l-272 317q-54 -35 -113 -88t-92 -99.5t-33 -98.5zM473 1094q0 -83 123 -226q182 130 182 228q0 46 -40 84.5 t-107 38.5q-64 0 -111 -35.5t-47 -89.5z" />
<glyph unicode="'" horiz-adv-x="610" d="M203 895v547h205v-547h-205z" />
<glyph unicode="(" horiz-adv-x="573" d="M100 707q0 281 65 491t177 336h219q-268 -330 -268 -832q0 -270 62.5 -456.5t203.5 -370.5h-213q-111 116 -178.5 354.5t-67.5 477.5z" />
<glyph unicode=")" horiz-adv-x="573" d="M12 1534h219q113 -125 177.5 -335t64.5 -492q0 -239 -67 -477.5t-179 -354.5h-213q141 184 204 370.5t63 456.5q0 503 -269 832z" />
<glyph unicode="*" horiz-adv-x="901" d="M113 1126l61 168l209 -82l-29 201h195l-29 -201l209 82l59 -168l-227 -30l158 -160l-158 -102l-110 208l-111 -208l-158 102l158 160z" />
<glyph unicode="+" horiz-adv-x="1253" d="M78 532v185h457v426h184v-426h457v-185h-457v-426h-184v426h-457z" />
<glyph unicode="," horiz-adv-x="633" d="M154 -225l100 489h281l-220 -489h-161z" />
<glyph unicode="-" horiz-adv-x="866" d="M141 532v185h584v-185h-584z" />
<glyph unicode="." horiz-adv-x="647" d="M201 0v264h245v-264h-245z" />
<glyph unicode="/" horiz-adv-x="934" d="M-37 -430l780 1946h228l-781 -1946h-227z" />
<glyph unicode="0" d="M29 707q0 67 8.5 135t28 141t48.5 137.5t74.5 123t101.5 101t132.5 67t165.5 24.5q113 0 208.5 -42.5t161 -113.5t112 -165.5t68 -198t21.5 -211.5q0 -107 -21 -210t-66.5 -196.5t-109.5 -164t-157 -112.5t-203 -42q-126 0 -227 47.5t-164.5 122t-105.5 173t-59 193.5 t-17 191zM279 707q0 -89 18 -172.5t54 -155.5t99.5 -116t145.5 -44q77 0 137 44.5t94.5 118t52 157t17.5 170.5q0 89 -18 172t-53 154t-97 114t-141 43q-64 0 -116.5 -29t-88 -76.5t-59.5 -111t-34.5 -131t-10.5 -137.5z" />
<glyph unicode="1" d="M246 1030v193h172q71 0 111 39t40 112v39h240v-1413h-250v1030h-313z" />
<glyph unicode="2" d="M53 0v201q1 0 20 12t49 31.5t70.5 46.5t88 61.5t96 72t101 82.5t97.5 89q226 222 226 403q0 91 -50 148t-149 57q-66 0 -114.5 -26.5t-75.5 -72.5t-40.5 -96.5t-15.5 -109.5l-247 16q0 99 33.5 191.5t94.5 165.5t155.5 116.5t207.5 43.5q195 0 325 -119t130 -299 q0 -268 -324 -580q-136 -130 -260 -205h653v-229h-1071z" />
<glyph unicode="3" d="M57 446l242 15q0 -115 80 -181.5t203 -66.5q119 0 200.5 57.5t81.5 157.5q0 101 -73 155t-191 54h-143v225h143q88 0 137 43.5t49 122.5q0 78 -58.5 124t-149.5 46q-94 0 -153 -54.5t-60 -146.5l-240 17q0 129 63 226t164.5 145.5t225.5 48.5q89 0 170 -26.5t144 -74.5 t100.5 -122.5t37.5 -163.5q0 -81 -32.5 -154t-90.5 -125q192 -107 199 -346q0 -108 -42.5 -194t-115.5 -139t-166.5 -81t-199.5 -28t-200 29.5t-167 85.5t-115.5 146.5t-42.5 204.5z" />
<glyph unicode="4" d="M27 332v147l690 934h213v-850h225v-231h-225v-332h-250v332h-653zM352 563h328v461z" />
<glyph unicode="5" d="M74 410l235 65q11 -52 31 -96.5t51.5 -84t81 -62.5t111.5 -23q111 0 185.5 83.5t74.5 190.5q0 110 -70 185t-190 75q-70 0 -136 -35.5t-104 -95.5l-229 58l137 743h786v-233h-585l-52 -265q107 56 220 56q130 0 241 -66t175.5 -179t64.5 -245t-70 -247.5t-190 -184.5 t-258 -69q-187 0 -329 123.5t-181 306.5z" />
<glyph unicode="6" d="M80 467q0 141 76 250l424 696h290l-305 -465h31q104 0 198.5 -35.5t164 -97.5t110.5 -150.5t41 -189.5q0 -97 -39 -187.5t-106.5 -158.5t-164.5 -108.5t-206 -40.5q-140 0 -258.5 65t-187 177t-68.5 245zM328 473q0 -106 79 -181t189 -75q109 0 187.5 75t78.5 181 t-78.5 181t-187.5 75q-110 0 -189 -75t-79 -181z" />
<glyph unicode="7" d="M86 1182v231h1020v-129l-627 -1284h-280l600 1182h-713z" />
<glyph unicode="8" d="M72 410q0 113 54.5 205t149.5 149q-133 112 -133 285q0 118 64.5 207.5t166 133.5t220.5 44t220 -44t165.5 -133.5t64.5 -207.5q0 -83 -35 -157.5t-98 -127.5q100 -58 152.5 -149.5t52.5 -204.5q0 -106 -43.5 -190t-117.5 -135.5t-166.5 -78t-196.5 -26.5q-103 0 -195 27 t-165.5 78.5t-116.5 135.5t-43 189zM319 426q0 -103 78 -161t195 -58t194.5 58t77.5 161t-75.5 160t-196.5 57q-122 0 -197.5 -57t-75.5 -160zM393 1040q0 -83 55.5 -132.5t149.5 -49.5q90 0 147.5 46.5t57.5 123.5q0 81 -57.5 127.5t-149.5 46.5q-85 0 -144 -44.5 t-59 -117.5z" />
<glyph unicode="9" d="M78 938q0 97 39 187.5t106.5 158.5t164.5 109t206 41q140 0 258.5 -65t187 -177.5t68.5 -245.5q0 -138 -76 -250l-424 -696h-291l306 465h-31q-140 0 -257.5 60.5t-187 169.5t-69.5 243zM326 940q0 -106 78 -181t188 -75t189 75t79 181t-79 181t-189 75t-188 -75 t-78 -181z" />
<glyph unicode=":" horiz-adv-x="676" d="M205 0v264h266v-264h-266zM205 690v264h266v-264h-266z" />
<glyph unicode=";" horiz-adv-x="659" d="M168 -225l100 489h281l-220 -489h-161zM229 690v264h267v-264h-267z" />
<glyph unicode="&#x3c;" horiz-adv-x="1237" d="M45 674l985 522l103 -178l-693 -344l693 -344l-103 -178z" />
<glyph unicode="=" horiz-adv-x="1268" d="M219 385v207h830v-207h-830zM219 752v206h830v-206h-830z" />
<glyph unicode="&#x3e;" horiz-adv-x="1237" d="M104 330l693 344l-693 344l103 178l985 -522l-985 -522z" />
<glyph unicode="?" horiz-adv-x="997" d="M45 991q0 208 118.5 325.5t317.5 117.5q124 0 225 -44.5t164.5 -137t63.5 -218.5q0 -74 -19 -133t-48.5 -95.5t-66 -64.5t-73 -47t-66 -36.5t-48.5 -40t-19 -50.5v-143h-207v145q0 67 18.5 117t48 79.5t65 51.5t71 41t65 40.5t48 56.5t18.5 83q0 97 -62 145t-170 48 q-229 0 -229 -240h-215zM360 0v264h267v-264h-267z" />
<glyph unicode="@" horiz-adv-x="2009" d="M96 520q0 189 66.5 356.5t185 290t290.5 194t374 71.5q204 0 376 -72.5t286 -194.5t177.5 -282.5t63.5 -337.5q0 -94 -18 -183t-55.5 -169t-91.5 -139.5t-131 -94.5t-169 -35q-125 0 -197.5 62.5t-83.5 173.5q-126 -117 -292 -117q-109 0 -187 57t-113.5 146t-35.5 198 q0 82 20.5 167.5t62 166t98 143.5t136 101.5t168.5 38.5q90 0 156.5 -36.5t103.5 -98.5l19 86h196q-15 -78 -56 -246.5t-68 -305.5t-27 -224q0 -64 19.5 -88.5t74.5 -24.5q59 0 107.5 25.5t80 67.5t53 98t30.5 114.5t9 120.5q0 110 -30.5 213t-91.5 190.5t-145 153 t-198 102.5t-245 37q-162 0 -299.5 -56.5t-230.5 -154t-145 -229.5t-52 -281q0 -126 37 -234.5t102.5 -188.5t154 -137.5t194.5 -86.5t222 -29q119 0 242 39l68 -182q-147 -53 -312 -53q-147 0 -282.5 38.5t-247 113.5t-194.5 179t-129 242t-46 295zM725 436 q0 -198 168 -198q76 0 140.5 40.5t104 105t61.5 140t22 148.5q0 194 -166 194q-77 0 -141.5 -40.5t-104.5 -104t-62 -138t-22 -147.5z" />
<glyph unicode="A" horiz-adv-x="1343" d="M12 0l566 1413h190l563 -1413h-274l-109 307h-549l-110 -307h-277zM485 524h377l-188 516z" />
<glyph unicode="B" horiz-adv-x="1274" d="M182 0v1413h490q67 0 129.5 -12t122 -41t103.5 -71.5t70.5 -108.5t26.5 -148q0 -91 -46 -166t-111 -110q96 -38 161.5 -138.5t65.5 -207.5q0 -127 -66 -222t-169.5 -141.5t-225.5 -46.5h-551zM436 242h301q100 0 153.5 49t53.5 147q0 78 -60 132.5t-157 54.5h-291v-383z M436 844h260q195 0 195 174q0 80 -60 123t-155 43h-240v-340z" />
<glyph unicode="C" horiz-adv-x="1432" d="M82 707q0 118 26 224.5t80.5 199t134 160.5t192.5 106.5t249 38.5q211 0 372 -104.5t246 -301.5l-237 -94q-74 258 -383 258q-109 0 -192.5 -37.5t-134 -103.5t-76 -150.5t-25.5 -185.5q0 -108 25.5 -196.5t76.5 -156.5t135 -105.5t195 -37.5q140 0 233.5 61.5 t149.5 200.5l235 -96q-83 -197 -244.5 -302t-373.5 -105q-169 0 -302 58.5t-215 160t-124.5 231t-42.5 277.5z" />
<glyph unicode="D" horiz-adv-x="1409" d="M182 0v1413h410q359 0 547 -185.5t188 -531.5q0 -332 -191 -514t-546 -182h-408zM436 233h129q121 0 211.5 25t158.5 79.5t103 147t35 222.5q0 252 -112.5 362.5t-372.5 110.5h-152v-947z" />
<glyph unicode="E" horiz-adv-x="1245" d="M182 0v1413h940v-233h-686v-357h639v-233h-639v-350h686v-240h-940z" />
<glyph unicode="F" horiz-adv-x="1235" d="M182 0v1413h1002v-233h-748v-357h660v-233h-660v-590h-254z" />
<glyph unicode="G" horiz-adv-x="1534" d="M82 707q0 118 25.5 224.5t80.5 199t134 160.5t192.5 106.5t249.5 38.5q210 0 370.5 -104.5t245.5 -301.5l-225 -94q-47 140 -150 209t-243 69q-108 0 -192 -40.5t-134.5 -110.5t-76 -157.5t-25.5 -188.5q0 -108 25.5 -198.5t76.5 -161.5t135.5 -110.5t194.5 -39.5 q154 0 264 96.5t131 255.5h-321v205h567v-764h-201l-22 199q-58 -101 -168.5 -160t-249.5 -59q-169 0 -302 58.5t-215 160t-124.5 231t-42.5 277.5z" />
<glyph unicode="H" horiz-adv-x="1491" d="M182 0v1413h254v-590h619v590h254v-1413h-254v590h-619v-590h-254z" />
<glyph unicode="I" horiz-adv-x="618" d="M182 0v1413h254v-1413h-254z" />
<glyph unicode="J" horiz-adv-x="1139" d="M31 440l250 29q8 -113 64 -183.5t163 -70.5q130 0 176.5 70.5t46.5 220.5v674h-532v233h786v-903q0 -116 -26.5 -210t-81.5 -167t-149 -113t-220 -40q-140 0 -247 63.5t-164 166.5t-66 230z" />
<glyph unicode="K" horiz-adv-x="1491" d="M182 0v1413h254v-737l688 737h340l-565 -579l576 -834h-316l-436 664l-287 -297v-367h-254z" />
<glyph unicode="L" horiz-adv-x="1063" d="M182 0v1413h254v-1173h604v-240h-858z" />
<glyph unicode="M" horiz-adv-x="1798" d="M182 0v1413h342l375 -1005l375 1005h342v-1413h-244v1057l-350 -934h-246l-350 934v-1057h-244z" />
<glyph unicode="N" horiz-adv-x="1454" d="M182 0v1413h252l594 -989v989h244v-1413h-254l-592 991v-991h-244z" />
<glyph unicode="O" horiz-adv-x="1528" d="M82 707q0 117 25.5 223.5t80.5 199t134 160t192.5 106t249.5 38.5t249.5 -38.5t192.5 -106t134 -160t80.5 -199t25.5 -223.5t-25.5 -223.5t-80.5 -199t-134 -160t-192.5 -106t-249.5 -38.5t-249.5 38.5t-192.5 106t-134 160t-80.5 199t-25.5 223.5zM350 707 q0 -83 13.5 -155t45 -136.5t78.5 -110.5t118 -73t159 -27t159 27t118 73t78.5 110.5t45 136.5t13.5 155q0 82 -13.5 154.5t-45 136.5t-78.5 110t-118 73t-159 27t-159 -27t-118 -73t-78.5 -110t-45 -136.5t-13.5 -154.5z" />
<glyph unicode="P" horiz-adv-x="1167" d="M182 0v1413h443q222 0 360.5 -111t138.5 -307q0 -193 -138.5 -301t-360.5 -108h-191v-586h-252zM434 823h191q128 0 187.5 43t59.5 129q0 181 -247 181h-191v-353z" />
<glyph unicode="Q" horiz-adv-x="1573" d="M82 707q0 117 25.5 223.5t80.5 199t134 160t192.5 106t249.5 38.5t249.5 -39t192.5 -106.5t134 -160.5t80.5 -199.5t25.5 -223.5q0 -136 -36 -260.5t-103 -217.5l202 -192l-163 -154l-203 203q-158 -104 -379 -104q-136 0 -249.5 38.5t-192.5 106t-134 160t-80.5 199 t-25.5 223.5zM336 707q0 -103 25 -189.5t75 -154.5t134 -106t194 -38t199 41l-193 176l164 150l188 -174q70 126 70 295q0 103 -25 189t-75 154t-134 106t-194 38t-194 -38t-134 -106t-75 -154t-25 -189z" />
<glyph unicode="R" horiz-adv-x="1268" d="M182 -2v1415h457q100 0 188 -28t155.5 -80t106.5 -131.5t39 -176.5q0 -130 -76 -227.5t-200 -140.5l393 -631h-289l-348 606h-172v-606h-254zM438 811h224q101 4 158 53t57 129q0 88 -64 140.5t-172 52.5h-203v-375z" />
<glyph unicode="S" horiz-adv-x="1137" d="M45 399l252 64q13 -120 94 -182t199 -62q108 0 168.5 50.5t60.5 131.5q0 62 -37.5 108t-97.5 75.5t-132.5 55.5t-145 58t-132.5 73.5t-97.5 111t-37.5 161.5q0 121 61 211t160 134.5t220 44.5q136 0 248 -61.5t182 -186.5l-211 -129q-37 72 -96.5 111.5t-129.5 39.5 q-75 0 -125.5 -42t-50.5 -107q0 -41 23.5 -74t62.5 -57t90 -45t107.5 -43t113 -46.5t107.5 -59t90 -77t62.5 -105t23.5 -138.5q0 -132 -67 -231t-177.5 -149t-246.5 -50q-95 0 -184 26.5t-163 76.5t-126 130.5t-68 181.5z" />
<glyph unicode="T" horiz-adv-x="1180" d="M20 1186v227h1139v-227h-442v-1186h-254v1186h-443z" />
<glyph unicode="U" horiz-adv-x="1380" d="M150 551v862h253v-833q0 -182 62.5 -268.5t224.5 -86.5q163 0 225 86.5t62 268.5v833h254v-852q0 -277 -132.5 -429t-408.5 -152q-275 0 -407.5 150.5t-132.5 420.5z" />
<glyph unicode="V" horiz-adv-x="1343" d="M12 1413h281l381 -1001l379 1001h278l-563 -1413h-190z" />
<glyph unicode="W" horiz-adv-x="2003" d="M25 1413h264l301 -1040l313 958h197l313 -958l301 1040h264l-424 -1413h-245l-308 930l-307 -930h-245z" />
<glyph unicode="X" horiz-adv-x="1343" d="M25 0l473 707l-471 706h303l342 -545l342 545h303l-471 -706l473 -707h-303l-346 537l-342 -537h-303z" />
<glyph unicode="Y" horiz-adv-x="1395" d="M-4 1413h299l403 -635l402 635h299l-574 -862v-551h-254v551z" />
<glyph unicode="Z" horiz-adv-x="1272" d="M59 0v176l789 1004h-744v233h1094v-184l-784 -1000h784v-229h-1139z" />
<glyph unicode="[" horiz-adv-x="641" d="M176 -164v1737h432v-162h-235v-1411h235v-164h-432z" />
<glyph unicode="\" horiz-adv-x="934" d="M-37 1516h227l781 -1946h-228z" />
<glyph unicode="]" horiz-adv-x="641" d="M33 0h235v1411h-235v162h432v-1737h-432v164z" />
<glyph unicode="^" horiz-adv-x="981" d="M63 805l426 692l429 -692h-242l-187 301l-184 -301h-242z" />
<glyph unicode="_" horiz-adv-x="1247" d="M199 0h850v-184h-850v184z" />
<glyph unicode="`" horiz-adv-x="532" d="M14 1413h260l226 -309h-178z" />
<glyph unicode="a" horiz-adv-x="1061" d="M43 307q0 79 32 136.5t89.5 90t129 47.5t159.5 15h260q0 97 -51 152t-146 55q-81 0 -140 -38t-95 -99l-187 135q76 104 177 159.5t241 55.5q203 0 318.5 -112t115.5 -298v-606h-201l-16 143q-112 -163 -311 -163q-160 0 -267.5 87.5t-107.5 239.5zM293 299 q0 -50 44.5 -81.5t115.5 -31.5q104 0 180.5 70t79.5 164h-246q-80 0 -127 -35.5t-47 -85.5z" />
<glyph unicode="b" horiz-adv-x="1176" d="M147 0v1411h252v-512q98 121 281 121q102 0 185.5 -42t136.5 -114t81.5 -165.5t28.5 -198.5q0 -141 -48 -257.5t-147 -189.5t-233 -73q-84 0 -159.5 29.5t-125.5 90.5v-100h-252zM377 500q0 -132 62.5 -213.5t183.5 -81.5t182 81.5t61 213.5t-61.5 215.5t-181.5 83.5 q-121 0 -183.5 -83t-62.5 -216z" />
<glyph unicode="c" horiz-adv-x="1004" d="M57 498q0 101 30 192t88 165t152 117.5t212 43.5q147 0 260.5 -78t171.5 -213l-232 -90q-19 72 -72 111.5t-128 39.5q-118 0 -176 -82.5t-58 -205.5q0 -80 22 -143t76.5 -104.5t135.5 -41.5q74 0 127.5 40.5t72.5 110.5l222 -84q-50 -140 -161 -218t-259 -78 q-118 0 -212.5 43.5t-152.5 116.5t-88.5 165t-30.5 193z" />
<glyph unicode="d" horiz-adv-x="1171" d="M63 500q0 141 48.5 257.5t147.5 189.5t233 73q84 0 159.5 -30t124.5 -91v514h248v-1413h-227l-11 112q-97 -132 -290 -132q-136 0 -236 72.5t-148.5 189t-48.5 258.5zM311 500q0 -133 61.5 -214t182.5 -81t181.5 80.5t60.5 214.5t-61 216.5t-181 82.5t-182 -83.5 t-62 -215.5z" />
<glyph unicode="e" horiz-adv-x="1067" d="M55 494q0 101 30 192t88 165t152 117.5t212 43.5q106 0 188.5 -29.5t135 -77.5t86.5 -116t47.5 -140t13.5 -153q0 -20 -2 -39t-4 -28l-3 -9h-686q13 -96 73.5 -150.5t166.5 -54.5q86 0 142 19.5t108 72.5l168 -147q-85 -91 -186.5 -131.5t-229.5 -40.5q-121 0 -218 41 t-157.5 112t-92.5 161t-32 192zM313 596h455q-25 211 -231 211q-97 0 -152 -57t-72 -154z" />
<glyph unicode="f" horiz-adv-x="688" d="M20 795v202h185v136q0 140 93 220.5t228 80.5q87 0 179 -41l-80 -201q-33 20 -78 20q-43 0 -67.5 -22.5t-24.5 -61.5v-129h233v-204h-233v-795h-252v795h-183z" />
<glyph unicode="g" horiz-adv-x="1040" d="M82 -113q0 19 4 39l104 94q-98 66 -98 203q0 118 93 200q-83 101 -83 230q0 105 56.5 188t149.5 127t204 44q129 0 233 -59l156 134l127 -155l-145 -117q43 -80 43 -174q0 -163 -118.5 -264t-287.5 -101q-101 0 -190 39q-29 -19 -29 -55q0 -13 5 -24t15.5 -19.5t22 -15 t31 -12t36.5 -9t43 -7t46 -5.5t50.5 -5.5t51.5 -6.5q67 -9 115 -18.5t103.5 -31t90 -50.5t57.5 -77.5t23 -111.5q0 -85 -34 -151t-94.5 -107t-139.5 -61.5t-174 -20.5q-217 0 -342 99.5t-125 260.5zM287 -123q14 -69 85.5 -110t180.5 -41q97 0 152 27t55 81q0 26 -14 43 t-50.5 27.5t-62 14.5t-84.5 11q-22 3 -33 4q-125 15 -178 27zM354 645q0 -73 44 -120.5t122 -47.5t121 47.5t43 120.5q0 77 -43.5 127.5t-120.5 50.5t-121.5 -50t-44.5 -128z" />
<glyph unicode="h" horiz-adv-x="1165" d="M145 0v1413h248v-530q109 133 289 133q76 0 138.5 -23.5t104.5 -63t71 -93t42 -113t13 -123.5v-600h-248v569q0 103 -35.5 161t-124.5 58q-100 0 -175 -73t-75 -168v-547h-248z" />
<glyph unicode="i" horiz-adv-x="532" d="M139 1188v225h256v-225h-256zM145 0v999h242v-999h-242z" />
<glyph unicode="j" horiz-adv-x="543" d="M-70 -406l62 211q55 -22 88 -22q70 0 70 94v1122h245v-1103q0 -146 -73.5 -240t-217.5 -94q-92 0 -174 32zM150 1167v246h256v-246h-256z" />
<glyph unicode="k" horiz-adv-x="1118" d="M147 0v1413h244v-829l377 415h317l-374 -387l415 -612h-288l-293 463l-154 -170v-293h-244z" />
<glyph unicode="l" horiz-adv-x="573" d="M139 199v1214h244v-1147q0 -67 86 -67q22 0 61 6v-205q-102 -20 -176 -20q-102 0 -158.5 47t-56.5 172z" />
<glyph unicode="m" horiz-adv-x="1743" d="M145 0v999h246v-104q47 64 112.5 93.5t135.5 29.5q184 0 287 -154q57 75 144 113.5t185 38.5q76 0 138.5 -23.5t105 -63t71.5 -93t42.5 -113t13.5 -123.5v-600h-248v569q0 222 -161 222q-96 0 -152.5 -69.5t-56.5 -172.5v-549h-248v573q0 48 -7.5 85.5t-24.5 68.5 t-49.5 47.5t-78.5 16.5q-95 0 -152 -69.5t-57 -172.5v-549h-246z" />
<glyph unicode="n" horiz-adv-x="1167" d="M145 0v999h248v-116q109 133 289 133q76 0 138.5 -23.5t104.5 -63t71 -93t42 -113t13 -123.5v-600h-248v569q0 103 -35.5 161t-124.5 58q-100 0 -175 -73t-75 -168v-547h-248z" />
<glyph unicode="o" horiz-adv-x="1128" d="M51 496q0 141 62.5 258t180.5 187.5t269 70.5t269 -70.5t180.5 -187.5t62.5 -258q0 -106 -37 -200t-102.5 -164t-162.5 -111t-210 -41t-210 41t-162.5 111t-102.5 164t-37 200zM305 496q0 -134 64 -220t194 -86q67 0 118 24.5t81 67.5t44.5 96.5t14.5 117.5 q0 63 -14.5 116.5t-44.5 96.5t-81 67.5t-118 24.5q-130 0 -194 -86t-64 -219z" />
<glyph unicode="p" horiz-adv-x="1171" d="M147 -438v1437h248v-100q98 121 281 121q135 0 235 -73t148.5 -189t48.5 -258q0 -141 -48.5 -257.5t-147.5 -189.5t-232 -73q-187 0 -285 120v-538h-248zM373 500q0 -133 61.5 -214t181.5 -81q121 0 182.5 81t61.5 214t-62 217t-182 84t-181.5 -84t-61.5 -217z" />
<glyph unicode="q" horiz-adv-x="1169" d="M63 500q0 141 48.5 257.5t147.5 189.5t233 73q84 0 159.5 -30t124.5 -91v100h246v-1437h-246v538q-96 -120 -280 -120q-136 0 -236 72.5t-148.5 189t-48.5 258.5zM311 500q0 -133 61.5 -214t182.5 -81t181.5 80.5t60.5 214.5t-61 216.5t-181 82.5t-182 -83.5t-62 -215.5z " />
<glyph unicode="r" horiz-adv-x="815" d="M145 0v999h238v-168q32 94 100 138.5t140 44.5q54 0 111.5 -16.5t99.5 -49.5l-111 -200q-41 34 -111 34q-101 0 -166 -92t-65 -227v-463h-236z" />
<glyph unicode="s" horiz-adv-x="907" d="M33 260l194 86q61 -164 213 -164q78 0 120 36.5t42 82.5q0 34 -27.5 56.5t-72 36.5t-98 26.5t-107 33t-98 49.5t-72 81.5t-27.5 124.5q0 76 30.5 136t83 96t118 54.5t139.5 18.5q128 0 225 -54.5t154 -156.5l-188 -103q-68 121 -199 121q-59 0 -94 -22t-35 -58 q0 -30 28 -51.5t73 -35.5t99 -28.5t108 -37.5t99 -55.5t73 -88.5t28 -131q0 -83 -34 -149t-90.5 -105t-124 -59t-140.5 -20q-153 0 -267.5 80t-152.5 200z" />
<glyph unicode="t" horiz-adv-x="760" d="M27 778v221h166v248l229 174v-422h260v-221h-260v-459q0 -124 121 -124q65 0 139 36v-221q-79 -30 -180 -30q-147 0 -230.5 79.5t-83.5 216.5v502h-161z" />
<glyph unicode="u" horiz-adv-x="1167" d="M115 412v587h247v-575q0 -103 39 -159t142 -56q231 0 231 299v491h248v-999h-248v117q-53 -69 -129 -104.5t-160 -35.5q-95 0 -168 37t-116 99.5t-64.5 138.5t-21.5 160z" />
<glyph unicode="v" horiz-adv-x="999" d="M-8 999h266l242 -684l243 684h265l-408 -999h-201z" />
<glyph unicode="w" horiz-adv-x="1466" d="M10 999h260l170 -626l189 626h209l188 -624l172 624h260l-309 -999h-219l-197 655l-196 -659h-220z" />
<glyph unicode="x" horiz-adv-x="1030" d="M10 0l342 504l-342 495h297l207 -329l207 329h299l-344 -495l344 -504h-299l-207 336l-207 -336h-297z" />
<glyph unicode="y" horiz-adv-x="1032" d="M-6 999h268l252 -694l256 694h268l-571 -1429h-266l184 457z" />
<glyph unicode="z" horiz-adv-x="1004" d="M53 0v162l565 633h-536v204h852v-174l-542 -620h542v-205h-881z" />
<glyph unicode="{" horiz-adv-x="618" d="M53 594v160q71 25 101 53.5t30 87.5v426q0 258 246 258h51q32 0 84 -4v-164q-61 14 -102 14q-43 0 -57.5 -7.5t-14.5 -26.5v-510q0 -77 -37.5 -126.5t-103.5 -86.5q65 -30 103 -75.5t38 -100.5v-361q0 -129 101 -129q30 0 73 10v-164q-13 0 -42 -2t-44 -2h-71 q-116 0 -187 105q-37 55 -37 178v360q0 21 -9 36.5t-30 28.5t-35 19.5t-44 17.5q-9 3 -13 5z" />
<glyph unicode="|" horiz-adv-x="623" d="M221 -512v2046h180v-2046h-180z" />
<glyph unicode="}" horiz-adv-x="618" d="M53 12q45 -10 74 -10q100 0 100 129v361q0 53 38 98.5t104 77.5q-67 35 -104.5 85t-37.5 128v510q0 19 -14 26.5t-57 7.5q-42 0 -103 -14v164q54 4 84 4h51q246 0 246 -258v-426q0 -59 30 -87.5t101 -53.5v-160q-3 -1 -19.5 -7.5t-21 -8.5t-19 -8t-19.5 -9.5t-16 -10.5 t-15.5 -13l-10.5 -14t-8 -17t-2 -19v-360q0 -122 -37 -178q-67 -105 -186 -105h-72q-14 0 -43.5 2t-42.5 2v164z" />
<glyph unicode="~" horiz-adv-x="1157" d="M172 406q0 123 59.5 184t167.5 61q73 0 133 -15.5t91 -33.5t62.5 -33.5t55.5 -15.5q43 0 54.5 19t11.5 73h178q0 -266 -250 -266q-64 0 -120 16t-88 35t-66 35t-60 16q-39 0 -49 -15.5t-10 -59.5h-170z" />
<glyph unicode="&#xa1;" horiz-adv-x="635" d="M184 735v264h267v-264h-267zM197 -434l28 1005h185l28 -1005h-241z" />
<glyph unicode="&#xa2;" horiz-adv-x="1116" d="M115 498q0 193 97.5 338.5t281.5 179.5v184h180v-184q125 -21 207.5 -93t140.5 -200l-217 -84q-27 95 -78.5 139.5t-140.5 44.5q-64 0 -112 -27t-76 -73.5t-42 -103t-14 -121.5q0 -66 13.5 -122.5t41.5 -103t76.5 -73.5t112.5 -27q90 0 140.5 45.5t78.5 138.5l203 -80 q-48 -130 -130 -202.5t-204 -93.5v-185h-180v185q-95 17 -169 66.5t-119 120t-68 154.5t-23 177z" />
<glyph unicode="&#xa3;" horiz-adv-x="1200" d="M137 0v207q10 4 26.5 12t59 35t75 56t59 74t26.5 91q0 27 -5.5 59t-10.5 51l-5 19h-221v205h172q-37 94 -37 227q0 177 114.5 293.5t316.5 116.5q144 0 251 -88.5t154 -222.5l-190 -70q-31 83 -87 129.5t-128 46.5q-109 0 -167.5 -52t-58.5 -157q0 -55 10.5 -110.5 t21.5 -83.5l11 -29h477v-205h-430q13 -59 13 -125q0 -60 -13 -110.5t-32 -79.5t-37.5 -49t-31.5 -28l-13 -7h721v-205h-1041z" />
<glyph unicode="&#xa4;" horiz-adv-x="1176" d="M88 264l107 105q-81 117 -81 261.5t81 262.5l-105 102l129 135l107 -108q118 81 262 82t262 -80l106 104l131 -129l-106 -104q82 -118 82 -264t-82 -264l106 -103l-129 -135l-108 109q-117 -82 -262.5 -82t-263.5 82l-107 -109zM297 629q-1 -120 82 -203q88 -88 208 -88 t206 88q84 87 84.5 206t-84.5 204q-86 84 -206 83.5t-206 -85.5q-83 -85 -84 -205z" />
<glyph unicode="&#xa5;" horiz-adv-x="1319" d="M-4 1413h250l413 -670l414 670h250l-473 -733h213v-184h-299v-117h299v-184h-299v-195h-209v195h-299v184h299v117h-299v186h213z" />
<glyph unicode="&#xa6;" horiz-adv-x="643" d="M221 -307v727h201v-727h-201zM221 731v744h201v-744h-201z" />
<glyph unicode="&#xa7;" horiz-adv-x="1106" d="M123 276l233 70q20 -89 73.5 -128.5t148.5 -39.5q85 0 137.5 28.5t52.5 84.5q0 37 -25.5 63.5t-67.5 40.5t-96 28.5t-110 25.5t-110 33t-96 50.5t-67.5 78.5t-25.5 116q0 114 86 207q-84 76 -84 190q0 74 33 134t88 97.5t124 58t144 20.5q130 0 233 -55t146 -136 l-195 -113q-18 53 -68 84t-124 31q-85 0 -131.5 -37.5t-46.5 -87.5q0 -39 33 -64t85.5 -39t116.5 -26.5t128 -32.5t116.5 -50t85.5 -86t33 -134q0 -118 -80 -205q80 -74 80 -192q0 -80 -36 -141.5t-96.5 -97t-131.5 -53t-148 -17.5t-147 17t-130.5 51.5t-103 92.5t-57.5 133 zM375 735q0 -34 20.5 -59t59.5 -41.5t82.5 -28.5t100.5 -25q10 -2 15.5 -3t14.5 -3t16 -4q40 14 62 43.5t22 67.5q0 31 -15.5 55t-36 39t-63 30t-72.5 23t-89 21q-23 5 -35 8q-41 -19 -61.5 -54t-20.5 -69z" />
<glyph unicode="&#xa8;" horiz-adv-x="842" d="M241 1155v195h205v-195h-205zM596 1155v195h204v-195h-204z" />
<glyph unicode="&#xa9;" horiz-adv-x="1739" d="M82 707q0 205 105.5 379t287 275t395.5 101q160 0 306 -60t251 -161t167.5 -240.5t62.5 -293.5t-62.5 -294t-167.5 -241t-251 -161t-306 -60q-161 0 -307 60t-251 161t-167.5 241t-62.5 294zM272 707q0 -113 48 -218t128.5 -181.5t191 -122.5t230.5 -46q159 0 297 77 t219.5 208.5t81.5 282.5t-81.5 282t-219.5 208t-297 77q-120 0 -230.5 -46t-191 -122t-128.5 -181t-48 -218zM498 705q0 89 24.5 167.5t72 140t123 97t169.5 35.5q126 0 211.5 -61t142.5 -183l-174 -74q-34 70 -74 98.5t-106 28.5q-102 0 -152.5 -69t-50.5 -180 q0 -112 49.5 -180t151.5 -68q70 0 108.5 29.5t71.5 97.5l176 -74q-58 -125 -143.5 -185.5t-210.5 -60.5q-95 0 -170 36t-122.5 97t-72 140t-24.5 168z" />
<glyph unicode="&#xaa;" horiz-adv-x="807" d="M72 928q0 111 77 165t201 54h195q-3 76 -39.5 113.5t-116.5 37.5q-104 0 -178 -106l-119 80q63 86 133 124t168 38q138 0 216.5 -78t78.5 -207v-426h-133l-4 84q-89 -98 -232 -98q-102 0 -174.5 60.5t-72.5 158.5zM231 928q0 -33 36 -57.5t79 -24.5q76 0 132.5 50.5 t66.5 117.5h-185q-59 0 -94 -23t-35 -63z" />
<glyph unicode="&#xab;" horiz-adv-x="954" d="M16 510l428 356v-211l-180 -145l180 -143v-211zM379 510l428 356v-211l-180 -145l180 -143v-211z" />
<glyph unicode="&#xac;" horiz-adv-x="1300" d="M135 580v217h948v-506h-233v289h-715z" />
<glyph unicode="&#xad;" horiz-adv-x="1010" d="M141 508v184h727v-184h-727z" />
<glyph unicode="&#xae;" horiz-adv-x="1739" d="M82 709q0 205 105.5 379t287 275t395.5 101q160 0 306 -60t251 -161t167.5 -240.5t62.5 -293.5t-62.5 -294t-167.5 -241t-251 -161t-306 -60q-161 0 -307 60t-251 161t-167.5 241t-62.5 294zM262 709q0 -154 82.5 -287t222.5 -211t303 -78q162 0 302 78t222.5 211 t82.5 287t-82.5 286.5t-222.5 210.5t-302 78q-163 0 -303 -78t-222.5 -210.5t-82.5 -286.5zM602 289v825h322q137 0 210.5 -67t73.5 -187q0 -87 -39.5 -144.5t-101.5 -84.5l199 -342h-211l-172 315h-97v-315h-184zM776 778h148q63 0 86.5 19t23.5 63q0 46 -22.5 63t-87.5 17 h-148v-162z" />
<glyph unicode="&#xaf;" horiz-adv-x="838" d="M139 1147v143h559v-143h-559z" />
<glyph unicode="&#xb0;" horiz-adv-x="805" d="M109 1141q0 121 86 207t206 86q121 0 207 -86t86 -207t-86 -207t-207 -86q-120 0 -206 86t-86 207zM272 1141q0 -54 38 -91.5t91 -37.5q55 0 93 37.5t38 91.5t-38 91.5t-93 37.5q-53 0 -91 -38t-38 -91z" />
<glyph unicode="&#xb1;" horiz-adv-x="1331" d="M117 532v185h456v426h185v-426h456v-185h-456v-426h-185v426h-456zM119 0h1093v-184h-1093v184z" />
<glyph unicode="&#xb4;" horiz-adv-x="537" d="M86 1124l225 289h260l-307 -289h-178z" />
<glyph unicode="&#xb5;" horiz-adv-x="1294" d="M219 -266v1265h227v-581q0 -230 170 -230q106 0 184.5 76t78.5 178v557h227v-999h-227v98q-53 -53 -125 -87t-154 -34q-88 0 -158 31l-18 -274h-205z" />
<glyph unicode="&#xb6;" horiz-adv-x="1262" d="M66 1018q0 120 65 212t166.5 137.5t220.5 45.5h170v-1659h-170v869q-119 0 -220.5 45.5t-166.5 137.5t-65 212zM868 -246v1659h172v-1659h-172z" />
<glyph unicode="&#xb7;" horiz-adv-x="616" d="M160 801q0 61 43 104t104 43q62 0 106 -42.5t44 -104.5t-43.5 -106t-106.5 -44q-62 0 -104.5 44t-42.5 106z" />
<glyph unicode="&#xb8;" horiz-adv-x="551" d="M51 -393l135 57q9 -20 27.5 -33.5t40.5 -13.5q36 0 58 22t22 56q0 48 -47 79t-121 31h-70l123 193h143l-75 -98q91 -13 140.5 -65t49.5 -132q0 -95 -66 -160t-163 -65q-63 0 -117.5 36t-79.5 93z" />
<glyph unicode="&#xba;" horiz-adv-x="844" d="M63 1073q0 151 101 256t258 105q155 0 255.5 -105t100.5 -256q0 -152 -100 -257t-256 -105q-157 0 -258 105t-101 257zM231 1073q0 -98 47 -157.5t144 -59.5q96 0 142 59.5t46 157.5t-46 157.5t-142 59.5q-97 0 -144 -59.5t-47 -157.5z" />
<glyph unicode="&#xbb;" horiz-adv-x="956" d="M145 156v211l181 143l-181 145v211l428 -356zM508 156v211l180 143l-180 145v211l428 -356z" />
<glyph unicode="&#xbf;" horiz-adv-x="993" d="M63 -35q0 75 19 134t48.5 95.5t66 64.5t73 47t66 36.5t48.5 39.5t19 50v143h207v-145q0 -67 -18.5 -117t-48 -79t-65 -51.5t-71 -41.5t-65 -40.5t-48 -56.5t-18.5 -83q0 -96 62 -144t168 -48q103 0 166.5 54t64.5 154h215q-1 -125 -60.5 -220t-157.5 -143t-218 -48 q-124 0 -225 44t-164.5 136.5t-63.5 218.5zM371 735v264h266v-264h-266z" />
<glyph unicode="&#xc0;" horiz-adv-x="1343" d="M12 0l566 1413h190l563 -1413h-274l-109 307h-549l-110 -307h-277zM299 1825h260l226 -309h-178zM485 524h377l-188 516z" />
<glyph unicode="&#xc1;" horiz-adv-x="1343" d="M12 0l566 1413h190l563 -1413h-274l-109 307h-549l-110 -307h-277zM485 524h377l-188 516zM553 1536l225 289h260l-307 -289h-178z" />
<glyph unicode="&#xc2;" horiz-adv-x="1343" d="M12 0l566 1413h190l563 -1413h-274l-109 307h-549l-110 -307h-277zM354 1510l316 352l317 -352h-209l-108 145l-107 -145h-209zM485 524h377l-188 516z" />
<glyph unicode="&#xc3;" horiz-adv-x="1343" d="M12 0l566 1413h190l563 -1413h-274l-109 307h-549l-110 -307h-277zM334 1524q0 137 57 211.5t156 74.5q39 0 71.5 -14.5t53 -35t37.5 -41.5t35 -35.5t37 -14.5q27 0 44 35.5t17 99.5h166q0 -137 -55.5 -212t-153.5 -75q-44 0 -77.5 15t-54 36t-36.5 42t-33.5 36t-37.5 15 q-31 0 -48.5 -36t-17.5 -101h-160zM485 524h377l-188 516z" />
<glyph unicode="&#xc4;" horiz-adv-x="1343" d="M12 0l566 1413h190l563 -1413h-274l-109 307h-549l-110 -307h-277zM391 1567v195h205v-195h-205zM485 524h377l-188 516zM746 1567v195h204v-195h-204z" />
<glyph unicode="&#xc5;" horiz-adv-x="1343" d="M12 0l531 1325q-47 31 -74 82t-27 109q0 95 67.5 162t162.5 67t163 -66.5t68 -162.5q0 -59 -27 -109.5t-73 -81.5l528 -1325h-274l-109 307h-549l-110 -307h-277zM485 524h377l-188 516zM573 1518q0 -45 28.5 -74t70.5 -29q44 0 72 29t28 74q0 42 -27 69t-73 27 q-44 0 -71.5 -27t-27.5 -69z" />
<glyph unicode="&#xc6;" horiz-adv-x="1858" d="M12 0l559 1413h1186v-213h-747v-387h659v-213h-659v-381h747v-219h-981v307h-397l-111 -307h-256zM459 504h317v696h-47z" />
<glyph unicode="&#xc7;" horiz-adv-x="1432" d="M82 707q0 118 26 224.5t80.5 199t134 160.5t192.5 106.5t249 38.5q211 0 372 -104.5t246 -301.5l-237 -94q-74 258 -383 258q-109 0 -192.5 -37.5t-134 -103.5t-76 -150.5t-25.5 -185.5q0 -108 25.5 -196.5t76.5 -156.5t135 -105.5t195 -37.5q140 0 233.5 61.5 t149.5 200.5l235 -96q-75 -178 -215 -281.5t-325 -121.5l-64 -84q91 -13 140.5 -65t49.5 -132q0 -95 -66 -160t-163 -65q-63 0 -117.5 36t-79.5 93l135 57q9 -20 27.5 -33.5t40.5 -13.5q36 0 58 22t22 56q0 48 -47 79t-121 31h-70l113 177q-153 11 -273.5 73.5t-195 162 t-113 224t-38.5 265.5z" />
<glyph unicode="&#xc8;" horiz-adv-x="1245" d="M182 0v1413h940v-233h-686v-357h639v-233h-639v-350h686v-240h-940zM248 1825h260l226 -309h-178z" />
<glyph unicode="&#xc9;" horiz-adv-x="1245" d="M182 0v1413h940v-233h-686v-357h639v-233h-639v-350h686v-240h-940zM502 1536l225 289h260l-307 -289h-178z" />
<glyph unicode="&#xca;" horiz-adv-x="1245" d="M182 0v1413h940v-233h-686v-357h639v-233h-639v-350h686v-240h-940zM303 1510l316 352l317 -352h-209l-108 145l-107 -145h-209z" />
<glyph unicode="&#xcb;" horiz-adv-x="1245" d="M182 0v1413h940v-233h-686v-357h639v-233h-639v-350h686v-240h-940zM340 1567v195h205v-195h-205zM695 1567v195h204v-195h-204z" />
<glyph unicode="&#xcc;" horiz-adv-x="618" d="M-64 1825h260l226 -309h-178zM182 0v1413h254v-1413h-254z" />
<glyph unicode="&#xcd;" horiz-adv-x="618" d="M182 0v1413h254v-1413h-254zM190 1536l225 289h260l-307 -289h-178z" />
<glyph unicode="&#xce;" horiz-adv-x="618" d="M-9 1510l316 352l317 -352h-209l-108 145l-107 -145h-209zM182 0v1413h254v-1413h-254z" />
<glyph unicode="&#xcf;" horiz-adv-x="618" d="M28 1567v195h205v-195h-205zM182 0v1413h254v-1413h-254zM383 1567v195h204v-195h-204z" />
<glyph unicode="&#xd0;" horiz-adv-x="1430" d="M92 621v184h113v608h399q357 0 551.5 -186t194.5 -531q0 -331 -197 -513.5t-551 -182.5h-397v621h-113zM438 219h140q121 0 217 28t168.5 85.5t111.5 152.5t39 222q0 246 -125.5 367.5t-388.5 121.5h-162v-391h381v-184h-381v-402z" />
<glyph unicode="&#xd1;" horiz-adv-x="1454" d="M182 0v1413h252l594 -989v989h244v-1413h-254l-592 991v-991h-244zM389 1524q0 137 57 211.5t156 74.5q39 0 71.5 -14.5t53 -35t37.5 -41.5t35 -35.5t37 -14.5q27 0 44 35.5t17 99.5h166q0 -137 -55.5 -212t-153.5 -75q-44 0 -77.5 15t-54 36t-36.5 42t-33.5 36t-37.5 15 q-31 0 -48.5 -36t-17.5 -101h-160z" />
<glyph unicode="&#xd2;" horiz-adv-x="1528" d="M82 707q0 117 25.5 223.5t80.5 199t134 160t192.5 106t249.5 38.5t249.5 -38.5t192.5 -106t134 -160t80.5 -199t25.5 -223.5t-25.5 -223.5t-80.5 -199t-134 -160t-192.5 -106t-249.5 -38.5t-249.5 38.5t-192.5 106t-134 160t-80.5 199t-25.5 223.5zM350 707 q0 -83 13.5 -155t45 -136.5t78.5 -110.5t118 -73t159 -27t159 27t118 73t78.5 110.5t45 136.5t13.5 155q0 82 -13.5 154.5t-45 136.5t-78.5 110t-118 73t-159 27t-159 -27t-118 -73t-78.5 -110t-45 -136.5t-13.5 -154.5zM391 1825h260l226 -309h-178z" />
<glyph unicode="&#xd3;" horiz-adv-x="1528" d="M82 707q0 117 25.5 223.5t80.5 199t134 160t192.5 106t249.5 38.5t249.5 -38.5t192.5 -106t134 -160t80.5 -199t25.5 -223.5t-25.5 -223.5t-80.5 -199t-134 -160t-192.5 -106t-249.5 -38.5t-249.5 38.5t-192.5 106t-134 160t-80.5 199t-25.5 223.5zM350 707 q0 -83 13.5 -155t45 -136.5t78.5 -110.5t118 -73t159 -27t159 27t118 73t78.5 110.5t45 136.5t13.5 155q0 82 -13.5 154.5t-45 136.5t-78.5 110t-118 73t-159 27t-159 -27t-118 -73t-78.5 -110t-45 -136.5t-13.5 -154.5zM645 1536l225 289h260l-307 -289h-178z" />
<glyph unicode="&#xd4;" horiz-adv-x="1528" d="M82 707q0 117 25.5 223.5t80.5 199t134 160t192.5 106t249.5 38.5t249.5 -38.5t192.5 -106t134 -160t80.5 -199t25.5 -223.5t-25.5 -223.5t-80.5 -199t-134 -160t-192.5 -106t-249.5 -38.5t-249.5 38.5t-192.5 106t-134 160t-80.5 199t-25.5 223.5zM350 707 q0 -83 13.5 -155t45 -136.5t78.5 -110.5t118 -73t159 -27t159 27t118 73t78.5 110.5t45 136.5t13.5 155q0 82 -13.5 154.5t-45 136.5t-78.5 110t-118 73t-159 27t-159 -27t-118 -73t-78.5 -110t-45 -136.5t-13.5 -154.5zM446 1510l316 352l317 -352h-209l-108 145l-107 -145 h-209z" />
<glyph unicode="&#xd5;" horiz-adv-x="1528" d="M82 707q0 117 25.5 223.5t80.5 199t134 160t192.5 106t249.5 38.5t249.5 -38.5t192.5 -106t134 -160t80.5 -199t25.5 -223.5t-25.5 -223.5t-80.5 -199t-134 -160t-192.5 -106t-249.5 -38.5t-249.5 38.5t-192.5 106t-134 160t-80.5 199t-25.5 223.5zM350 707 q0 -83 13.5 -155t45 -136.5t78.5 -110.5t118 -73t159 -27t159 27t118 73t78.5 110.5t45 136.5t13.5 155q0 82 -13.5 154.5t-45 136.5t-78.5 110t-118 73t-159 27t-159 -27t-118 -73t-78.5 -110t-45 -136.5t-13.5 -154.5zM426 1524q0 137 57 211.5t156 74.5q39 0 71.5 -14.5 t53 -35t37.5 -41.5t35 -35.5t37 -14.5q27 0 44 35.5t17 99.5h166q0 -137 -55.5 -212t-153.5 -75q-44 0 -77.5 15t-54 36t-36.5 42t-33.5 36t-37.5 15q-31 0 -48.5 -36t-17.5 -101h-160z" />
<glyph unicode="&#xd6;" horiz-adv-x="1528" d="M82 707q0 117 25.5 223.5t80.5 199t134 160t192.5 106t249.5 38.5t249.5 -38.5t192.5 -106t134 -160t80.5 -199t25.5 -223.5t-25.5 -223.5t-80.5 -199t-134 -160t-192.5 -106t-249.5 -38.5t-249.5 38.5t-192.5 106t-134 160t-80.5 199t-25.5 223.5zM350 707 q0 -83 13.5 -155t45 -136.5t78.5 -110.5t118 -73t159 -27t159 27t118 73t78.5 110.5t45 136.5t13.5 155q0 82 -13.5 154.5t-45 136.5t-78.5 110t-118 73t-159 27t-159 -27t-118 -73t-78.5 -110t-45 -136.5t-13.5 -154.5zM483 1567v195h205v-195h-205zM838 1567v195h204v-195 h-204z" />
<glyph unicode="&#xd7;" horiz-adv-x="1090" d="M92 301l322 324l-301 301l131 131l301 -301l323 321l129 -129l-321 -323l301 -301l-131 -131l-301 301l-324 -322z" />
<glyph unicode="&#xd8;" horiz-adv-x="1528" d="M82 707q0 117 25.5 223.5t80.5 199t134 160t192.5 106t249.5 38.5q172 0 311 -63l25 42h182l-75 -125q118 -99 178.5 -250.5t60.5 -330.5q0 -117 -25.5 -223.5t-80.5 -199t-134 -160t-192.5 -106t-249.5 -38.5q-173 0 -312 63l-26 -43h-182l77 126q-118 99 -178.5 251 t-60.5 330zM350 707q0 -231 102 -363l500 825q-81 39 -188 39q-88 0 -159 -27t-118 -73t-78.5 -110t-45 -136.5t-13.5 -154.5zM574 245q82 -40 190 -40q88 0 159 27t118 73t78.5 110.5t45 136.5t13.5 155q0 231 -103 364z" />
<glyph unicode="&#xd9;" horiz-adv-x="1380" d="M150 551v862h253v-833q0 -182 62.5 -268.5t224.5 -86.5q163 0 225 86.5t62 268.5v833h254v-852q0 -277 -132.5 -429t-408.5 -152q-275 0 -407.5 150.5t-132.5 420.5zM313 1825h260l226 -309h-178z" />
<glyph unicode="&#xda;" horiz-adv-x="1380" d="M150 551v862h253v-833q0 -182 62.5 -268.5t224.5 -86.5q163 0 225 86.5t62 268.5v833h254v-852q0 -277 -132.5 -429t-408.5 -152q-275 0 -407.5 150.5t-132.5 420.5zM567 1536l225 289h260l-307 -289h-178z" />
<glyph unicode="&#xdb;" horiz-adv-x="1380" d="M150 551v862h253v-833q0 -182 62.5 -268.5t224.5 -86.5q163 0 225 86.5t62 268.5v833h254v-852q0 -277 -132.5 -429t-408.5 -152q-275 0 -407.5 150.5t-132.5 420.5zM368 1510l316 352l317 -352h-209l-108 145l-107 -145h-209z" />
<glyph unicode="&#xdc;" horiz-adv-x="1380" d="M150 551v862h253v-833q0 -182 62.5 -268.5t224.5 -86.5q163 0 225 86.5t62 268.5v833h254v-852q0 -277 -132.5 -429t-408.5 -152q-275 0 -407.5 150.5t-132.5 420.5zM405 1567v195h205v-195h-205zM760 1567v195h204v-195h-204z" />
<glyph unicode="&#xdd;" horiz-adv-x="1395" d="M-4 1413h299l403 -635l402 635h299l-574 -862v-551h-254v551zM579 1536l225 289h260l-307 -289h-178z" />
<glyph unicode="&#xde;" horiz-adv-x="1147" d="M182 0v1413h232v-194h256q210 0 322 -107t112 -293q0 -206 -134 -314t-356 -108h-200v-397h-232zM414 608h200q258 0 258 203q0 209 -258 209h-200v-412z" />
<glyph unicode="&#xdf;" horiz-adv-x="1186" d="M147 0v1020q0 96 36 175.5t96.5 131t138.5 79.5t164 28q111 0 211 -44t165.5 -130t65.5 -195q0 -65 -24 -113.5t-58.5 -75t-68.5 -45.5t-58 -38t-24 -41q0 -25 32.5 -53.5t78.5 -60t92.5 -71.5t79 -104t32.5 -141q0 -149 -107.5 -244.5t-269.5 -95.5q-98 0 -203 36 l84 207q56 -22 113 -22q63 0 100 33t37 83q0 44 -30.5 85t-74 76t-86.5 73t-73.5 92t-30.5 117q0 54 22.5 94t54.5 63.5t63.5 44.5t54 50t22.5 67q0 58 -47 101t-139 43q-102 0 -154.5 -55t-52.5 -150v-1020h-242z" />
<glyph unicode="&#xe0;" horiz-adv-x="1061" d="M43 307q0 79 32 136.5t89.5 90t129 47.5t159.5 15h260q0 97 -51 152t-146 55q-81 0 -140 -38t-95 -99l-187 135q76 104 177 159.5t241 55.5q203 0 318.5 -112t115.5 -298v-606h-201l-16 143q-112 -163 -311 -163q-160 0 -267.5 87.5t-107.5 239.5zM131 1413h260l226 -309 h-178zM293 299q0 -50 44.5 -81.5t115.5 -31.5q104 0 180.5 70t79.5 164h-246q-80 0 -127 -35.5t-47 -85.5z" />
<glyph unicode="&#xe1;" horiz-adv-x="1061" d="M43 307q0 79 32 136.5t89.5 90t129 47.5t159.5 15h260q0 97 -51 152t-146 55q-81 0 -140 -38t-95 -99l-187 135q76 104 177 159.5t241 55.5q203 0 318.5 -112t115.5 -298v-606h-201l-16 143q-112 -163 -311 -163q-160 0 -267.5 87.5t-107.5 239.5zM293 299 q0 -50 44.5 -81.5t115.5 -31.5q104 0 180.5 70t79.5 164h-246q-80 0 -127 -35.5t-47 -85.5zM385 1124l225 289h260l-307 -289h-178z" />
<glyph unicode="&#xe2;" horiz-adv-x="1061" d="M43 307q0 79 32 136.5t89.5 90t129 47.5t159.5 15h260q0 97 -51 152t-146 55q-81 0 -140 -38t-95 -99l-187 135q76 104 177 159.5t241 55.5q203 0 318.5 -112t115.5 -298v-606h-201l-16 143q-112 -163 -311 -163q-160 0 -267.5 87.5t-107.5 239.5zM186 1098l316 352 l317 -352h-209l-108 145l-107 -145h-209zM293 299q0 -50 44.5 -81.5t115.5 -31.5q104 0 180.5 70t79.5 164h-246q-80 0 -127 -35.5t-47 -85.5z" />
<glyph unicode="&#xe3;" horiz-adv-x="1061" d="M43 307q0 79 32 136.5t89.5 90t129 47.5t159.5 15h260q0 97 -51 152t-146 55q-81 0 -140 -38t-95 -99l-187 135q76 104 177 159.5t241 55.5q203 0 318.5 -112t115.5 -298v-606h-201l-16 143q-112 -163 -311 -163q-160 0 -267.5 87.5t-107.5 239.5zM166 1112 q0 137 57 211.5t156 74.5q39 0 71.5 -14.5t53 -35t37.5 -41.5t35 -35.5t37 -14.5q27 0 44 35.5t17 99.5h166q0 -137 -55.5 -212t-153.5 -75q-44 0 -77.5 15t-54 36t-36.5 42t-33.5 36t-37.5 15q-31 0 -48.5 -36t-17.5 -101h-160zM293 299q0 -50 44.5 -81.5t115.5 -31.5 q104 0 180.5 70t79.5 164h-246q-80 0 -127 -35.5t-47 -85.5z" />
<glyph unicode="&#xe4;" horiz-adv-x="1061" d="M43 307q0 79 32 136.5t89.5 90t129 47.5t159.5 15h260q0 97 -51 152t-146 55q-81 0 -140 -38t-95 -99l-187 135q76 104 177 159.5t241 55.5q203 0 318.5 -112t115.5 -298v-606h-201l-16 143q-112 -163 -311 -163q-160 0 -267.5 87.5t-107.5 239.5zM223 1155v195h205v-195 h-205zM293 299q0 -50 44.5 -81.5t115.5 -31.5q104 0 180.5 70t79.5 164h-246q-80 0 -127 -35.5t-47 -85.5zM578 1155v195h204v-195h-204z" />
<glyph unicode="&#xe5;" horiz-adv-x="1061" d="M43 307q0 79 32 136.5t89.5 90t129 47.5t159.5 15h260q0 97 -51 152t-146 55q-81 0 -140 -38t-95 -99l-187 135q76 104 177 159.5t241 55.5q203 0 318.5 -112t115.5 -298v-606h-201l-16 143q-112 -163 -311 -163q-160 0 -267.5 87.5t-107.5 239.5zM273 1300 q0 95 67 162.5t162 67.5t163.5 -67t68.5 -163q0 -97 -67.5 -164t-164.5 -67q-96 0 -162.5 68.5t-66.5 162.5zM293 299q0 -50 44.5 -81.5t115.5 -31.5q104 0 180.5 70t79.5 164h-246q-80 0 -127 -35.5t-47 -85.5zM404 1303q0 -45 28 -74t70 -29q45 0 73 29t28 74q0 42 -27 69 t-74 27q-44 0 -71 -27t-27 -69z" />
<glyph unicode="&#xe6;" horiz-adv-x="1677" d="M45 293q0 82 30.5 142t86 94.5t125.5 50.5t157 16h271q0 110 -51 161.5t-166 51.5q-74 0 -136.5 -36.5t-99.5 -90.5l-172 125q77 105 177.5 157t238.5 52q110 0 196 -43t138 -121q125 160 327 160q99 0 177.5 -29t129 -78t84 -116.5t47 -139.5t13.5 -153q0 -20 -2.5 -39 t-5.5 -28l-2 -9h-686q14 -96 75 -150.5t166 -54.5q85 0 141.5 19.5t106.5 72.5l170 -147q-87 -92 -187.5 -132t-228.5 -40q-239 0 -350 162q-160 -170 -416 -170q-146 0 -250 86.5t-104 226.5zM274 295q0 -57 44 -86t120 -29q106 0 184.5 73.5t92.5 166.5h-256 q-85 0 -135 -35t-50 -90zM924 596h454q-28 211 -231 211q-98 0 -153.5 -57t-69.5 -154z" />
<glyph unicode="&#xe7;" horiz-adv-x="1004" d="M57 498q0 101 30 192t88 165t152 117.5t212 43.5q147 0 260.5 -78t171.5 -213l-232 -90q-19 72 -72 111.5t-128 39.5q-118 0 -176 -82.5t-58 -205.5q0 -80 22 -143t76.5 -104.5t135.5 -41.5q74 0 127.5 40.5t72.5 110.5l222 -84q-44 -125 -139 -201.5t-223 -91.5l-64 -83 q91 -13 140.5 -65t49.5 -132q0 -95 -66 -160t-163 -65q-63 0 -117.5 36t-79.5 93l135 57q9 -20 27.5 -33.5t40.5 -13.5q36 0 58 22t22 56q0 48 -47 79t-121 31h-70l115 181q-130 18 -223 95.5t-136 184.5t-43 232z" />
<glyph unicode="&#xe8;" horiz-adv-x="1067" d="M55 494q0 101 30 192t88 165t152 117.5t212 43.5q106 0 188.5 -29.5t135 -77.5t86.5 -116t47.5 -140t13.5 -153q0 -20 -2 -39t-4 -28l-3 -9h-686q13 -96 73.5 -150.5t166.5 -54.5q86 0 142 19.5t108 72.5l168 -147q-85 -91 -186.5 -131.5t-229.5 -40.5q-121 0 -218 41 t-157.5 112t-92.5 161t-32 192zM153 1413h260l226 -309h-178zM313 596h455q-25 211 -231 211q-97 0 -152 -57t-72 -154z" />
<glyph unicode="&#xe9;" horiz-adv-x="1067" d="M55 494q0 101 30 192t88 165t152 117.5t212 43.5q106 0 188.5 -29.5t135 -77.5t86.5 -116t47.5 -140t13.5 -153q0 -20 -2 -39t-4 -28l-3 -9h-686q13 -96 73.5 -150.5t166.5 -54.5q86 0 142 19.5t108 72.5l168 -147q-85 -91 -186.5 -131.5t-229.5 -40.5q-121 0 -218 41 t-157.5 112t-92.5 161t-32 192zM313 596h455q-25 211 -231 211q-97 0 -152 -57t-72 -154zM407 1124l225 289h260l-307 -289h-178z" />
<glyph unicode="&#xea;" horiz-adv-x="1067" d="M55 494q0 101 30 192t88 165t152 117.5t212 43.5q106 0 188.5 -29.5t135 -77.5t86.5 -116t47.5 -140t13.5 -153q0 -20 -2 -39t-4 -28l-3 -9h-686q13 -96 73.5 -150.5t166.5 -54.5q86 0 142 19.5t108 72.5l168 -147q-85 -91 -186.5 -131.5t-229.5 -40.5q-121 0 -218 41 t-157.5 112t-92.5 161t-32 192zM208 1098l316 352l317 -352h-209l-108 145l-107 -145h-209zM313 596h455q-25 211 -231 211q-97 0 -152 -57t-72 -154z" />
<glyph unicode="&#xeb;" horiz-adv-x="1067" d="M55 494q0 101 30 192t88 165t152 117.5t212 43.5q106 0 188.5 -29.5t135 -77.5t86.5 -116t47.5 -140t13.5 -153q0 -20 -2 -39t-4 -28l-3 -9h-686q13 -96 73.5 -150.5t166.5 -54.5q86 0 142 19.5t108 72.5l168 -147q-85 -91 -186.5 -131.5t-229.5 -40.5q-121 0 -218 41 t-157.5 112t-92.5 161t-32 192zM245 1155v195h205v-195h-205zM313 596h455q-25 211 -231 211q-97 0 -152 -57t-72 -154zM600 1155v195h204v-195h-204z" />
<glyph unicode="&#xec;" horiz-adv-x="516" d="M-115 1413h260l226 -309h-178zM145 0v999h226v-999h-226z" />
<glyph unicode="&#xed;" horiz-adv-x="516" d="M139 1124l225 289h260l-307 -289h-178zM145 0v999h226v-999h-226z" />
<glyph unicode="&#xee;" horiz-adv-x="516" d="M-60 1098l316 352l317 -352h-209l-108 145l-107 -145h-209zM145 0v999h226v-999h-226z" />
<glyph unicode="&#xef;" horiz-adv-x="516" d="M-23 1155v195h205v-195h-205zM145 0v999h226v-999h-226zM332 1155v195h204v-195h-204z" />
<glyph unicode="&#xf0;" horiz-adv-x="1178" d="M55 516q0 141 57 254.5t169 181.5t260 68q152 0 256 -78q-65 183 -273 288l-80 -116l-102 66l69 100q-59 21 -135 45l111 191q76 -28 145 -62l68 98l105 -61l-65 -94q230 -135 341 -336.5t111 -493.5q0 -277 -132.5 -430t-373.5 -153q-128 0 -231 43.5t-167.5 118.5 t-98.5 169.5t-34 200.5zM301 516q0 -130 71 -218.5t201 -88.5q131 0 202 89t71 220q0 132 -72.5 218.5t-200.5 86.5q-130 0 -201 -88.5t-71 -218.5z" />
<glyph unicode="&#xf1;" horiz-adv-x="1167" d="M145 0v999h248v-116q109 133 289 133q76 0 138.5 -23.5t104.5 -63t71 -93t42 -113t13 -123.5v-600h-248v569q0 103 -35.5 161t-124.5 58q-100 0 -175 -73t-75 -168v-547h-248zM250 1112q0 137 57 211.5t156 74.5q39 0 71.5 -14.5t53 -35t37.5 -41.5t35 -35.5t37 -14.5 q27 0 44 35.5t17 99.5h166q0 -137 -55.5 -212t-153.5 -75q-44 0 -77.5 15t-54 36t-36.5 42t-33.5 36t-37.5 15q-31 0 -48.5 -36t-17.5 -101h-160z" />
<glyph unicode="&#xf2;" horiz-adv-x="1128" d="M51 496q0 141 62.5 258t180.5 187.5t269 70.5t269 -70.5t180.5 -187.5t62.5 -258q0 -106 -37 -200t-102.5 -164t-162.5 -111t-210 -41t-210 41t-162.5 111t-102.5 164t-37 200zM190 1413h260l226 -309h-178zM305 496q0 -134 64 -220t194 -86q67 0 118 24.5t81 67.5 t44.5 96.5t14.5 117.5q0 63 -14.5 116.5t-44.5 96.5t-81 67.5t-118 24.5q-130 0 -194 -86t-64 -219z" />
<glyph unicode="&#xf3;" horiz-adv-x="1128" d="M51 496q0 141 62.5 258t180.5 187.5t269 70.5t269 -70.5t180.5 -187.5t62.5 -258q0 -106 -37 -200t-102.5 -164t-162.5 -111t-210 -41t-210 41t-162.5 111t-102.5 164t-37 200zM305 496q0 -134 64 -220t194 -86q67 0 118 24.5t81 67.5t44.5 96.5t14.5 117.5 q0 63 -14.5 116.5t-44.5 96.5t-81 67.5t-118 24.5q-130 0 -194 -86t-64 -219zM444 1124l225 289h260l-307 -289h-178z" />
<glyph unicode="&#xf4;" horiz-adv-x="1128" d="M51 496q0 141 62.5 258t180.5 187.5t269 70.5t269 -70.5t180.5 -187.5t62.5 -258q0 -106 -37 -200t-102.5 -164t-162.5 -111t-210 -41t-210 41t-162.5 111t-102.5 164t-37 200zM245 1098l316 352l317 -352h-209l-108 145l-107 -145h-209zM305 496q0 -134 64 -220t194 -86 q67 0 118 24.5t81 67.5t44.5 96.5t14.5 117.5q0 63 -14.5 116.5t-44.5 96.5t-81 67.5t-118 24.5q-130 0 -194 -86t-64 -219z" />
<glyph unicode="&#xf5;" horiz-adv-x="1128" d="M51 496q0 141 62.5 258t180.5 187.5t269 70.5t269 -70.5t180.5 -187.5t62.5 -258q0 -106 -37 -200t-102.5 -164t-162.5 -111t-210 -41t-210 41t-162.5 111t-102.5 164t-37 200zM225 1112q0 137 57 211.5t156 74.5q39 0 71.5 -14.5t53 -35t37.5 -41.5t35 -35.5t37 -14.5 q27 0 44 35.5t17 99.5h166q0 -137 -55.5 -212t-153.5 -75q-44 0 -77.5 15t-54 36t-36.5 42t-33.5 36t-37.5 15q-31 0 -48.5 -36t-17.5 -101h-160zM305 496q0 -134 64 -220t194 -86q67 0 118 24.5t81 67.5t44.5 96.5t14.5 117.5q0 63 -14.5 116.5t-44.5 96.5t-81 67.5 t-118 24.5q-130 0 -194 -86t-64 -219z" />
<glyph unicode="&#xf6;" horiz-adv-x="1128" d="M51 496q0 141 62.5 258t180.5 187.5t269 70.5t269 -70.5t180.5 -187.5t62.5 -258q0 -106 -37 -200t-102.5 -164t-162.5 -111t-210 -41t-210 41t-162.5 111t-102.5 164t-37 200zM282 1155v195h205v-195h-205zM305 496q0 -134 64 -220t194 -86q67 0 118 24.5t81 67.5 t44.5 96.5t14.5 117.5q0 63 -14.5 116.5t-44.5 96.5t-81 67.5t-118 24.5q-130 0 -194 -86t-64 -219zM637 1155v195h204v-195h-204z" />
<glyph unicode="&#xf7;" horiz-adv-x="1266" d="M84 537v184h1098v-184h-1098zM500 143v265h266v-265h-266zM500 834v264h266v-264h-266z" />
<glyph unicode="&#xf8;" horiz-adv-x="1128" d="M51 496q0 141 62.5 258t180.5 187.5t269 70.5q117 0 218 -44l19 31h129l-53 -87q94 -70 146.5 -179.5t52.5 -236.5q0 -106 -37 -200t-102.5 -164t-162.5 -111t-210 -41q-121 0 -223 47l-17 -28h-129l51 84q-92 71 -143 179t-51 234zM305 496q0 -133 60 -215l303 501 q-47 19 -105 19q-130 0 -194 -86t-64 -219zM452 212q49 -22 111 -22q67 0 118 24.5t81 67.5t44.5 96.5t14.5 117.5q0 138 -64 219z" />
<glyph unicode="&#xf9;" horiz-adv-x="1167" d="M115 412v587h247v-575q0 -103 39 -159t142 -56q231 0 231 299v491h248v-999h-248v117q-53 -69 -129 -104.5t-160 -35.5q-95 0 -168 37t-116 99.5t-64.5 138.5t-21.5 160zM202 1413h260l226 -309h-178z" />
<glyph unicode="&#xfa;" horiz-adv-x="1167" d="M115 412v587h247v-575q0 -103 39 -159t142 -56q231 0 231 299v491h248v-999h-248v117q-53 -69 -129 -104.5t-160 -35.5q-95 0 -168 37t-116 99.5t-64.5 138.5t-21.5 160zM456 1124l225 289h260l-307 -289h-178z" />
<glyph unicode="&#xfb;" horiz-adv-x="1167" d="M115 412v587h247v-575q0 -103 39 -159t142 -56q231 0 231 299v491h248v-999h-248v117q-53 -69 -129 -104.5t-160 -35.5q-95 0 -168 37t-116 99.5t-64.5 138.5t-21.5 160zM257 1098l316 352l317 -352h-209l-108 145l-107 -145h-209z" />
<glyph unicode="&#xfc;" horiz-adv-x="1167" d="M115 412v587h247v-575q0 -103 39 -159t142 -56q231 0 231 299v491h248v-999h-248v117q-53 -69 -129 -104.5t-160 -35.5q-95 0 -168 37t-116 99.5t-64.5 138.5t-21.5 160zM294 1155v195h205v-195h-205zM649 1155v195h204v-195h-204z" />
<glyph unicode="&#xfd;" horiz-adv-x="1032" d="M-6 999h268l252 -694l256 694h268l-571 -1429h-266l184 457zM397 1124l225 289h260l-307 -289h-178z" />
<glyph unicode="&#xfe;" horiz-adv-x="1155" d="M147 -438v1851h232v-495q110 102 276 102q104 0 188 -42t138 -114t82.5 -165.5t28.5 -198.5q0 -106 -28.5 -199.5t-82.5 -165t-138 -113.5t-188 -42q-169 0 -276 102v-520h-232zM362 500q0 -138 64.5 -224t187.5 -86t187.5 86t64.5 224q0 137 -64.5 222t-187.5 85 t-187.5 -85t-64.5 -222z" />
<glyph unicode="&#xff;" horiz-adv-x="1032" d="M-6 999h268l252 -694l256 694h268l-571 -1429h-266l184 457zM235 1155v195h205v-195h-205zM590 1155v195h204v-195h-204z" />
<glyph unicode="&#x152;" horiz-adv-x="2255" d="M82 707q0 117 25.5 223.5t80.5 199t134 160t192.5 106t249.5 38.5q276 0 428 -168v147h940v-233h-686v-357h639v-233h-639v-350h686v-240h-940v147q-154 -167 -428 -167q-136 0 -249.5 38.5t-192.5 106t-134 160t-80.5 199t-25.5 223.5zM336 707q0 -103 25 -189.5 t75 -154.5t134 -106t194 -38t194 38t134 106t75 154.5t25 189.5t-25 189t-75 154t-134 106t-194 38t-194 -38t-134 -106t-75 -154t-25 -189z" />
<glyph unicode="&#x153;" horiz-adv-x="1829" d="M51 496q0 141 61.5 257.5t180 187.5t270.5 71q114 0 209.5 -46t161.5 -124q132 170 354 170q106 0 189.5 -29.5t136.5 -78t87 -116.5t48 -139t14 -151q0 -23 -2 -43t-4 -29l-2 -8h-686q14 -88 79 -140.5t169 -52.5q80 0 141 25.5t115 81.5l176 -156q-179 -188 -430 -188 q-123 0 -222 44.5t-159 121.5q-141 -174 -375 -174q-114 0 -211 41t-162.5 111.5t-102 164.5t-36.5 199zM305 494q0 -141 61.5 -224.5t190.5 -83.5t193.5 85t64.5 225t-61.5 223.5t-190.5 83.5t-193.5 -84.5t-64.5 -224.5zM1071 596h442q-28 203 -225 203q-93 0 -146.5 -55 t-70.5 -148z" />
<glyph unicode="&#x178;" horiz-adv-x="1395" d="M-4 1413h299l403 -635l402 635h299l-574 -862v-551h-254v551zM417 1567v195h205v-195h-205zM772 1567v195h204v-195h-204z" />
<glyph unicode="&#x2c6;" horiz-adv-x="653" d="M10 1098l316 352l317 -352h-209l-108 145l-107 -145h-209z" />
<glyph unicode="&#x2dc;" horiz-adv-x="1004" d="M190 1133q0 137 57 211.5t156 74.5q39 0 71.5 -14.5t53 -35.5t37.5 -41.5t35 -35t37 -14.5q27 0 44 35.5t17 99.5h166q0 -137 -55.5 -212t-153.5 -75q-44 0 -77.5 15t-54 36t-36.5 42t-33.5 36t-37.5 15q-31 0 -48.5 -36t-17.5 -101h-160z" />
<glyph unicode="&#x2000;" horiz-adv-x="931" />
<glyph unicode="&#x2001;" horiz-adv-x="1862" />
<glyph unicode="&#x2002;" horiz-adv-x="931" />
<glyph unicode="&#x2003;" horiz-adv-x="1862" />
<glyph unicode="&#x2004;" horiz-adv-x="620" />
<glyph unicode="&#x2005;" horiz-adv-x="465" />
<glyph unicode="&#x2006;" horiz-adv-x="310" />
<glyph unicode="&#x2007;" horiz-adv-x="310" />
<glyph unicode="&#x2008;" horiz-adv-x="232" />
<glyph unicode="&#x2009;" horiz-adv-x="372" />
<glyph unicode="&#x200a;" horiz-adv-x="103" />
<glyph unicode="&#x2010;" horiz-adv-x="866" d="M141 532v185h584v-185h-584z" />
<glyph unicode="&#x2011;" horiz-adv-x="866" d="M141 532v185h584v-185h-584z" />
<glyph unicode="&#x2012;" horiz-adv-x="866" d="M141 532v185h584v-185h-584z" />
<glyph unicode="&#x2013;" horiz-adv-x="1051" d="M141 508v184h768v-184h-768z" />
<glyph unicode="&#x2014;" horiz-adv-x="1706" d="M141 508v184h1424v-184h-1424z" />
<glyph unicode="&#x2018;" horiz-adv-x="573" d="M55 1413h277l137 -557h-162z" />
<glyph unicode="&#x2019;" horiz-adv-x="573" d="M104 856l138 557h276l-252 -557h-162z" />
<glyph unicode="&#x201a;" horiz-adv-x="553" d="M106 -225l134 489h254l-246 -489h-142z" />
<glyph unicode="&#x201c;" horiz-adv-x="963" d="M55 1413h277l137 -557h-162zM444 1413h277l137 -557h-162z" />
<glyph unicode="&#x201d;" horiz-adv-x="963" d="M104 856l138 557h276l-252 -557h-162zM494 856l137 557h276l-252 -557h-161z" />
<glyph unicode="&#x201e;" horiz-adv-x="897" d="M106 -225l134 489h254l-246 -489h-142zM455 -225l133 489h254l-246 -489h-141z" />
<glyph unicode="&#x2022;" horiz-adv-x="758" d="M141 481q0 98 70 168t168 70t167.5 -70t69.5 -168t-69.5 -167.5t-167.5 -69.5t-168 69.5t-70 167.5z" />
<glyph unicode="&#x2026;" horiz-adv-x="1475" d="M201 0v264h245v-264h-245zM614 0v264h246v-264h-246zM1028 0v264h246v-264h-246z" />
<glyph unicode="&#x202f;" horiz-adv-x="372" />
<glyph unicode="&#x2039;" horiz-adv-x="592" d="M16 510l428 356v-211l-180 -145l180 -143v-211z" />
<glyph unicode="&#x203a;" horiz-adv-x="594" d="M145 156v211l181 143l-181 145v211l428 -356z" />
<glyph unicode="&#x205f;" horiz-adv-x="465" />
<glyph unicode="&#x20ac;" horiz-adv-x="1245" d="M96 453l78 180h51q-2 26 -2 74q0 14 1 44t1 42h-129l78 186h78q52 210 181 333.5t333 123.5q247 0 395 -205l-155 -123q-83 109 -240 109q-223 0 -309 -238h530l-78 -182h-485q-4 -54 -4 -74q0 -32 4 -82h563l-78 -180h-452q82 -262 311 -262q150 0 233 112l148 -145 q-148 -186 -381 -186q-208 0 -338.5 129t-179.5 344h-154z" />
<glyph unicode="&#x2122;" horiz-adv-x="1405" d="M133 1274v139h442v-139h-145v-397h-151v397h-146zM662 877v536h149l115 -315l114 315h148v-536h-152v266l-61 -185h-96l-66 189v-270h-151z" />
<glyph unicode="&#x25fc;" horiz-adv-x="1000" d="M0 0v1000h1000v-1000h-1000z" />
<glyph unicode="&#xfb03;" horiz-adv-x="1751" d="M12 795v204h164v72q0 111 59 195t154 126t209 42q188 0 317 -103q63 53 151 78t171 25q184 0 367 -123l-129 -187q-57 47 -103 65q-58 23 -129 23q-99 0 -152 -41t-53 -104v-68h594v-999h-235v795h-359v-795h-245v795h-373v-795h-244v795h-164zM420 999h375v72q0 45 6 68 q-40 36 -82 54.5t-105 18.5q-94 0 -144 -41t-50 -104v-68z" />
<glyph unicode="&#xfb04;" horiz-adv-x="1870" d="M49 795v204h164v93q0 88 34 155.5t93 107t133 59.5t160 20q179 0 303 -99q124 99 356 99q89 0 169.5 -28t125 -60t80.5 -70v-1010q0 -67 72 -67q32 0 59 6v-205q-102 -20 -168 -20q-200 0 -200 219v970q-22 13 -37 20.5t-51.5 15t-84.5 7.5q-81 0 -134.5 -33.5 t-53.5 -101.5v-78h176v-204h-176v-795h-246v795h-366v-795h-246v795h-162zM457 999h368q0 93 2 142q-71 71 -190 71q-93 0 -136.5 -38.5t-43.5 -102.5v-72z" />
</font>
</defs>
</svg>
